Coordinates
version=1
nRows=14
nColumns=36
inDegrees=yes

Units are S.I. units (second, meters, Newtons, ...)
If the header above contains a line with 'inDegrees', this indicates whether rotational values are in degrees (yes) or radians (no).

endheader
time	pelvis_tilt	pelvis_list	pelvis_rotation	pelvis_tx	pelvis_ty	pelvis_tz	hip_flexion_r	hip_adduction_r	hip_rotation_r	knee_angle_r	knee_angle_r_beta	ankle_angle_r	subtalar_angle_r	mtp_angle_r	hip_flexion_l	hip_adduction_l	hip_rotation_l	knee_angle_l	knee_angle_l_beta	ankle_angle_l	subtalar_angle_l	mtp_angle_l	lumbar_extension	lumbar_bending	lumbar_rotation	arm_flex_r	arm_add_r	arm_rot_r	elbow_flex_r	pro_sup_r	arm_flex_l	arm_add_l	arm_rot_l	elbow_flex_l	pro_sup_l
      0.00000000	      2.47829196	      0.26716335	     -1.91865236	      0.11717624	      1.21593839	      0.01413791	     -2.82214233	      0.97816307	      0.71931409	      6.29725602	      0.10990785	     12.04357954	     -3.83209070	     -6.47209761	      0.02687963	     -2.63247090	      2.80567487	     10.36286982	      0.18086620	      8.30509098	     -9.27657818	     -6.47209761	    -11.15016884	      1.03319119	     -4.48201702	      6.57258659	     -3.50604720	     21.79430276	     21.36586960	     73.43348555	      3.81923289	     -5.22853742	     15.90284470	     23.84073374	     71.63686496
      0.01666670	      4.28951794	      1.08115415	     -2.03762537	      0.11728956	      1.21961957	      0.01374535	     -5.14187155	      0.35250916	      1.09503065	      5.73563106	      0.10010565	     13.44615720	     -3.63189395	     -6.55345561	     -2.75424205	     -1.27522707	      3.37239354	      8.82423996	      0.15401204	      6.55193652	     -9.66112904	     -6.55345561	    -13.45348762	      0.37968557	     -4.34548087	      6.97414228	     -3.24848754	     19.97965216	     21.44210312	     73.84704585	      4.20998893	     -4.92582206	     14.78745335	     24.38756532	     72.04291855
      0.03333330	      4.17074681	      2.13448475	     -2.30235466	      0.11649467	      1.21948917	      0.01397243	     -5.56243743	     -0.73238170	     -0.17273922	      4.50635397	      0.07865071	     12.48715558	     -4.07773680	     -6.81785706	     -3.00021744	     -0.06340213	      2.90670599	      8.04482698	      0.14040872	      6.50408663	     -9.09591428	     -6.81785706	    -13.58609833	     -1.01802534	     -3.74083499	      6.09524583	     -2.20916980	     12.27089330	     22.68276046	     78.56850097	      4.70587929	     -4.69729966	     12.63822596	     24.10003488	     75.96829349
      0.05000000	      5.85711301	      2.59005340	     -2.29027890	      0.11566345	      1.22349922	      0.01488292	     -7.90228770	     -1.30213353	     -0.31309309	      3.12528657	      0.05454654	     12.20610864	     -3.31387705	     -6.91456714	     -5.56099503	      0.56864446	      3.13046215	      6.37506758	      0.11126592	      5.47423374	     -9.35555660	     -6.91456714	    -15.85182372	     -1.70705824	     -3.81693571	      6.20166625	     -1.73015643	     10.39097443	     23.35655699	     79.58473652	      5.11586989	     -4.71562017	     11.43077306	     24.33838223	     76.17799473
      0.06666670	      6.70785760	      2.69026235	     -2.28607318	      0.11686591	      1.22577109	      0.01543919	     -9.32032367	     -1.40126418	     -0.03366707	      2.14448678	      0.03742836	     11.37301988	     -3.25076970	     -7.16275073	     -6.97145729	      0.72641555	      3.07119803	      5.31913788	      0.09283647	      4.83577895	     -9.02728055	     -7.16275073	    -17.03065311	     -1.88092105	     -3.44076637	      5.81642882	     -0.99295941	      3.90596228	     24.18091043	     90.63551091	      5.27702145	     -4.25644931	      7.85147683	     24.49973130	     83.25775566
      0.08333330	      7.18042909	      2.79444818	     -2.23519958	      0.11492177	      1.22516135	      0.01566842	     -9.98925091	     -1.51018934	      0.44507804	      1.70447409	      0.02974868	     11.05143044	     -3.40727393	     -7.33225521	     -7.54000336	      0.87170936	      2.92094147	      5.01696226	      0.08756251	      4.81866527	     -8.51230462	     -7.33225521	    -17.72866264	     -2.05259940	     -3.27624835	      5.93873436	     -0.98712608	      4.52329166	     24.34015963	     90.22991075	      5.55699609	     -4.28074111	      7.63035939	     24.67699709	     83.02909353
      0.10000000	      7.84976163	      2.72062705	     -2.16813945	      0.11548674	      1.22748710	      0.01583587	    -10.94927984	     -1.48317186	      0.29181096	      1.55298652	      0.02710473	     10.54699163	     -3.71732136	     -7.44644425	     -8.35436355	      0.82565413	      2.79238019	      4.85700064	      0.08477065	      4.57872592	     -8.17097741	     -7.44644425	    -18.66461451	     -2.01934398	     -3.19329577	      6.08468235	     -0.90370263	      4.02378608	     24.55034683	     91.95715030	      5.67146887	     -4.04752426	      5.59289021	     25.06787436	     86.03250345
      0.11666670	      8.07190003	      2.76406887	     -2.14856523	      0.11583835	      1.22638118	      0.01578543	    -11.28218115	     -1.52292440	      0.56896800	      1.40885450	      0.02458915	     10.01031424	     -4.29187732	     -7.48737573	     -8.60164158	      0.88991938	      2.64228879	      4.87432761	      0.08507307	      4.50102291	     -8.06201840	     -7.48737573	    -19.04248553	     -2.10973222	     -3.15995272	      6.24867141	     -0.94057050	      4.89464125	     24.49035145	     91.66942259	      5.71606793	     -3.96803948	      4.83700645	     25.36207531	     86.63337321
      0.13333330	      8.18366819	      2.75398898	     -2.03194793	      0.11554542	      1.22533476	      0.01603536	    -11.49521784	     -1.47437773	      0.51238447	      1.23378006	      0.02153352	      9.78183128	     -4.34333089	     -7.49803540	     -8.66439042	      0.84231170	      2.76756550	      4.94626017	      0.08632853	      4.50220912	     -7.87563891	     -7.49803540	    -19.20312884	     -2.11319902	     -3.16363730	      6.36470479	     -1.01546230	      5.75315835	     24.41467150	     91.84157348	      5.70744663	     -3.88005087	      4.05968662	     25.63025857	     87.91204627
      0.15000000	      8.45820978	      2.74597108	     -2.02008707	      0.11699019	      1.22742674	      0.01574568	    -11.92119551	     -1.46182109	      0.39477660	      1.12309705	      0.01960174	      9.26374360	     -4.92500734	     -7.49975547	     -9.03057308	      0.82304880	      2.72622872	      4.89799540	      0.08548615	      4.37834623	     -7.74093841	     -7.49975547	    -19.46956534	     -2.13631153	     -3.24140108	      6.47540109	     -1.05004929	      6.51195217	     24.28482648	     92.02271595	      5.61817053	     -3.79181147	      3.40767586	     25.75046474	     88.58816419
      0.16666670	      8.58811518	      2.72953947	     -2.15506104	      0.11662275	      1.22715686	      0.01595016	    -12.14320357	     -1.45975731	      0.25441622	      1.03511397	      0.01806615	      8.82199588	     -5.65203140	     -7.49992848	     -9.25687068	      0.82814121	      2.58463668	      4.88707816	      0.08529560	      4.41608707	     -7.63385220	     -7.49992848	    -19.57894998	     -2.17025990	     -3.22670443	      6.54973150	     -1.10637662	      7.10165036	     24.23378468	     92.40402395	      5.50263510	     -3.72347886	      2.89275851	     25.86773047	     88.84931223
      0.18333330	      8.62568562	      2.75396713	     -2.17141996	      0.11577567	      1.22772798	      0.01621132	    -12.21255093	     -1.44928025	      0.06075706	      0.91365974	      0.01594637	      8.63360694	     -5.92153398	     -7.49995895	     -9.29547502	      0.83958376	      2.68404674	      4.89074792	      0.08535965	      4.28839606	     -7.71221074	     -7.49995895	    -19.58026492	     -2.23981716	     -3.31579284	      6.71238012	     -1.28229858	      9.13728303	     24.09934948	     89.06234860	      5.51634834	     -3.90329123	      4.22395522	     25.74236200	     85.26082599
      0.20000000	      8.62573505	      2.72635318	     -2.15235557	      0.11534190	      1.22802844	      0.01519628	    -12.19933143	     -1.42787283	     -0.15248359	      0.85681489	      0.01495424	      8.35870954	     -6.04903157	     -7.49999314	     -9.26151101	      0.80718131	      2.56182796	      4.92972775	      0.08603998	      4.23812552	     -7.72380836	     -7.49999314	    -19.69113545	     -2.19602150	     -3.24755883	      6.70423110	     -1.19489093	      7.66310675	     24.28484998	     93.19334663	      5.47321465	     -3.68158304	      2.57690496	     25.79036658	     89.54516031
      0.21666670	      8.66134581	      2.67832163	     -2.14839601	      0.11484340	      1.22865275	      0.01567007	    -12.18729208	     -1.38348609	     -0.24323047	      0.79192330	      0.01382167	      8.09172688	     -6.17365278	     -7.49999834	     -9.28986930	      0.74936108	      2.52012067	      4.96028737	      0.08657335	      4.08281739	     -7.85798568	     -7.49999834	    -19.82265353	     -2.17730516	     -3.18488675	      6.77779666	     -1.24517628	      7.75390133	     24.38138113	     93.68111736	      5.54552923	     -3.65447548	      2.63571850	     25.68359167	     89.65851477
